<svg xmlns="http://www.w3.org/2000/svg" viewBox="0 0 64 64">
  <defs>
    <linearGradient id="bg" x1="8" y1="8" x2="56" y2="56" gradientUnits="userSpaceOnUse">
      <stop offset="0" stop-color="#166534" />
      <stop offset="0.52" stop-color="#0f766e" />
      <stop offset="1" stop-color="#2563eb" />
    </linearGradient>
    <linearGradient id="sky" x1="32" y1="16" x2="32" y2="34" gradientUnits="userSpaceOnUse">
      <stop offset="0" stop-color="#dcfce7" />
      <stop offset="1" stop-color="#bfdbfe" />
    </linearGradient>
    <clipPath id="scene-clip">
      <circle cx="32" cy="25" r="9.5" />
    </clipPath>
  </defs>

  <rect width="64" height="64" rx="16" fill="url(#bg)" />
  <circle cx="32" cy="32" r="19.5" fill="#ffffff" opacity="0.12" />

  <path
    d="M32 10c-7.73 0-14 6.11-14 13.65 0 9.77 11.1 20.75 14 24.35 2.9-3.6 14-14.58 14-24.35C46 16.11 39.73 10 32 10Z"
    fill="#f8fafc"
  />
  <circle cx="32" cy="25" r="9.5" fill="url(#sky)" />

  <g clip-path="url(#scene-clip)">
    <ellipse cx="32" cy="31.5" rx="9.5" ry="2.4" fill="#38bdf8" />
    <path d="M24.5 31c3.1-1.4 6.3-1.4 9.4 0 3-1.4 5.5-1.4 7.6 0v2.5H24.5Z" fill="#7dd3fc" />
    <path d="M24 29h16v2.2H24Z" fill="#86efac" />
    <path d="m26.2 29.2 3.3-5.4 3.3 5.4Z" fill="#22c55e" />
    <path d="m29.4 29.1 3.6-6.5 3.7 6.5Z" fill="#16a34a" />
    <path d="m33.4 29.2 2.9-4.7 2.9 4.7Z" fill="#15803d" />
  </g>
</svg>
